<svg xmlns="http://www.w3.org/2000/svg" xmlns:xlink="http://www.w3.org/1999/xlink" width="500" zoomAndPan="magnify" viewBox="0 0 375 374.999991" height="500" preserveAspectRatio="xMidYMid meet" version="1.0"><defs><clipPath id="id1"><path d="M 17 34.859375 L 125 34.859375 L 125 143 L 17 143 Z M 17 34.859375 " clip-rule="nonzero"/></clipPath></defs><path fill="#2d1e2f" d="M 138.578125 95.15625 L 160.605469 117.171875 L 98.859375 178.886719 L 76.835938 156.878906 L 138.578125 95.15625 " fill-opacity="1" fill-rule="nonzero"/><g clip-path="url(#id1)"><path fill="#2d1e2f" d="M 124.949219 96.207031 L 95.582031 125.558594 L 70.933594 100.925781 L 29.503906 142.335938 L 17.449219 130.277344 L 32.125 66.332031 L 63.59375 34.886719 L 124.949219 96.207031 " fill-opacity="1" fill-rule="nonzero"/></g><path fill="#2d1e2f" d="M 161 123.855469 L 169.65625 132.503906 L 153.625 148.523438 L 144.976562 139.871094 L 161 123.855469 " fill-opacity="1" fill-rule="nonzero"/><path fill="#2d1e2f" d="M 74.476562 196.1875 L 91.78125 178.886719 L 75.265625 162.378906 L 57.953125 179.671875 L 74.476562 196.1875 " fill-opacity="1" fill-rule="nonzero"/><path fill="#2d1e2f" d="M 69.554688 151.570312 L 91.78125 129.359375 L 74.667969 112.261719 L 41.238281 145.671875 L 49.796875 154.222656 L 69.554688 151.570312 " fill-opacity="1" fill-rule="nonzero"/><path fill="#2d1e2f" d="M 182.523438 196.1875 L 135.039062 149.796875 L 107.644531 177.1875 L 153.320312 222.839844 L 182.523438 196.1875 " fill-opacity="1" fill-rule="nonzero"/><path fill="#2d1e2f" d="M 216.285156 231.003906 L 188.105469 257.605469 L 261.03125 330.492188 C 269.71875 339.175781 282.894531 340.085938 290.464844 332.523438 C 298.027344 324.960938 297.117188 311.789062 288.429688 303.109375 L 216.285156 231.003906 " fill-opacity="1" fill-rule="nonzero"/><path fill="#2d1e2f" d="M 342.734375 149.761719 L 357.707031 115.5 L 346.839844 104.636719 L 323 132.089844 L 294.351562 139.003906 L 269.597656 114.273438 L 276.523438 85.632812 L 305.796875 63.613281 L 294.933594 52.753906 L 260.648438 67.714844 L 236.707031 91.644531 L 237.988281 153.101562 L 238.476562 153.589844 L 80.394531 303.253906 C 73.027344 310.621094 73.027344 322.558594 80.394531 329.925781 C 87.761719 337.285156 99.707031 337.285156 107.070312 329.925781 L 259.601562 172.453125 L 318.792969 173.691406 L 342.734375 149.761719 " fill-opacity="1" fill-rule="nonzero"/></svg>