<svg xmlns="http://www.w3.org/2000/svg" xmlns:xlink="http://www.w3.org/1999/xlink" width="500" zoomAndPan="magnify" viewBox="0 0 375 374.999991" height="500" preserveAspectRatio="xMidYMid meet" version="1.0"><defs><g/><clipPath id="id1"><path d="M 43 19.542969 L 136 19.542969 L 136 112 L 43 112 Z M 43 19.542969 " clip-rule="nonzero"/></clipPath></defs><path fill="#2d1e2f" d="M 146.921875 71.25 L 165.804688 90.128906 L 112.878906 143.046875 L 94 124.175781 L 146.921875 71.25 " fill-opacity="1" fill-rule="nonzero"/><g clip-path="url(#id1)"><path fill="#2d1e2f" d="M 135.242188 72.148438 L 110.070312 97.316406 L 88.941406 76.195312 L 53.429688 111.703125 L 43.09375 101.363281 L 55.675781 46.53125 L 82.648438 19.566406 L 135.242188 72.148438 " fill-opacity="1" fill-rule="nonzero"/></g><path fill="#2d1e2f" d="M 166.144531 95.859375 L 173.5625 103.277344 L 159.820312 117.011719 L 152.40625 109.59375 L 166.144531 95.859375 " fill-opacity="1" fill-rule="nonzero"/><path fill="#2d1e2f" d="M 91.976562 157.882812 L 106.808594 143.046875 L 92.652344 128.890625 L 77.816406 143.722656 L 91.976562 157.882812 " fill-opacity="1" fill-rule="nonzero"/><path fill="#2d1e2f" d="M 87.757812 119.625 L 106.808594 100.578125 L 92.144531 85.914062 L 63.488281 114.566406 L 70.820312 121.898438 L 87.757812 119.625 " fill-opacity="1" fill-rule="nonzero"/><path fill="#2d1e2f" d="M 184.59375 157.882812 L 143.890625 118.101562 L 120.40625 141.589844 L 159.558594 180.738281 L 184.59375 157.882812 " fill-opacity="1" fill-rule="nonzero"/><path fill="#2d1e2f" d="M 213.53125 187.738281 L 189.375 210.550781 L 251.886719 273.046875 C 259.332031 280.496094 270.628906 281.277344 277.117188 274.789062 C 283.597656 268.304688 282.820312 257.011719 275.371094 249.566406 L 213.53125 187.738281 " fill-opacity="1" fill-rule="nonzero"/><path fill="#2d1e2f" d="M 321.921875 118.074219 L 334.757812 88.691406 L 325.441406 79.378906 L 305.003906 102.917969 L 280.449219 108.847656 L 259.230469 87.644531 L 265.167969 63.082031 L 290.261719 44.203125 L 280.945312 34.890625 L 251.558594 47.71875 L 231.039062 68.238281 L 232.136719 120.9375 L 232.554688 121.355469 L 97.046875 249.691406 C 90.734375 256.007812 90.734375 266.246094 97.046875 272.5625 C 103.363281 278.871094 113.605469 278.871094 119.914062 272.5625 L 250.664062 137.53125 L 301.398438 138.59375 L 321.921875 118.074219 " fill-opacity="1" fill-rule="nonzero"/><g fill="#2d1e2f" fill-opacity="1"><g transform="translate(49.006774, 352.747566)"><g><path d="M 20.109375 0 C 20.949219 0 21.386719 -0.4375 21.386719 -1.277344 L 21.386719 -40.0625 L 31.75 -40.0625 C 32.589844 -40.0625 33.027344 -40.527344 33.027344 -41.335938 L 33.027344 -46.535156 C 33.027344 -47.375 32.589844 -47.8125 31.75 -47.8125 L 2.242188 -47.8125 C 1.402344 -47.8125 0.964844 -47.375 0.964844 -46.535156 L 0.964844 -41.335938 C 0.964844 -40.527344 1.402344 -40.0625 2.242188 -40.0625 L 12.574219 -40.0625 L 12.574219 -1.277344 C 12.574219 -0.4375 13.042969 0 13.851562 0 Z M 20.109375 0 "/></g></g></g><g fill="#2d1e2f" fill-opacity="1"><g transform="translate(80.415737, 352.747566)"><g><path d="M 11.019531 0 C 11.859375 0 12.296875 -0.4375 12.296875 -1.277344 L 12.296875 -17.773438 C 12.296875 -23.40625 14.628906 -26.335938 18.769531 -26.335938 C 19.421875 -26.335938 20.296875 -26.242188 21.261719 -26.023438 C 22.070312 -25.835938 22.628906 -26.117188 22.816406 -26.894531 L 24.0625 -31.65625 C 24.25 -32.402344 23.96875 -32.996094 23.222656 -33.214844 C 22.195312 -33.492188 21.167969 -33.648438 20.265625 -33.648438 C 16.933594 -33.648438 13.539062 -32.15625 11.238281 -28.359375 L 10.367188 -31.84375 C 10.179688 -32.621094 9.679688 -32.964844 8.964844 -32.964844 L 5.507812 -32.964844 C 4.699219 -32.964844 4.234375 -32.496094 4.234375 -31.6875 L 4.265625 -1.277344 C 4.265625 -0.4375 4.730469 0 5.539062 0 Z M 11.019531 0 "/></g></g></g><g fill="#2d1e2f" fill-opacity="1"><g transform="translate(103.295648, 352.747566)"><g><path d="M 16.777344 -33.648438 C 13.136719 -33.648438 9.214844 -32.964844 5.507812 -31.75 C 4.730469 -31.46875 4.421875 -30.941406 4.699219 -30.132812 L 6.007812 -26.023438 C 6.257812 -25.214844 6.816406 -24.996094 7.625 -25.277344 C 10.488281 -26.335938 13.476562 -27.019531 16.0625 -27.019531 C 19.921875 -27.019531 22.847656 -25.492188 22.847656 -21.230469 L 22.847656 -19.144531 C 20.480469 -19.734375 18.148438 -20.046875 15.9375 -20.046875 C 8.527344 -20.046875 2.769531 -16.496094 2.769531 -9.402344 C 2.769531 -2.550781 8 0.714844 13.851562 0.714844 C 17.402344 0.714844 21.355469 -0.46875 24 -4.046875 L 24.777344 -1.121094 C 24.933594 -0.34375 25.429688 0 26.179688 0 L 29.601562 0 C 30.441406 0 30.878906 -0.4375 30.878906 -1.277344 L 30.878906 -21.570312 C 30.878906 -30.378906 24.527344 -33.648438 16.777344 -33.648438 Z M 15.78125 -5.136719 C 13.105469 -5.136719 10.800781 -6.503906 10.800781 -9.523438 C 10.800781 -13.011719 13.820312 -14.382812 17.804688 -14.382812 C 19.421875 -14.382812 21.105469 -14.164062 22.847656 -13.757812 L 22.847656 -12.359375 C 22.847656 -6.941406 18.738281 -5.136719 15.78125 -5.136719 Z M 15.78125 -5.136719 "/></g></g></g><g fill="#2d1e2f" fill-opacity="1"><g transform="translate(135.545067, 352.747566)"><g><path d="M 38.566406 -46.535156 C 38.566406 -47.375 38.101562 -47.8125 37.292969 -47.8125 L 31.8125 -47.8125 C 30.972656 -47.8125 30.535156 -47.375 30.535156 -46.535156 L 30.566406 -29.445312 C 27.609375 -32.15625 23.625 -33.648438 19.484375 -33.648438 C 9.992188 -33.648438 2.800781 -25.960938 2.800781 -16.464844 C 2.800781 -7.003906 9.992188 0.714844 19.484375 0.714844 C 24.25 0.714844 28.636719 -1.214844 31.5625 -4.605469 L 32.496094 -1.121094 C 32.683594 -0.34375 33.183594 0 33.898438 0 L 37.351562 0 C 38.164062 0 38.628906 -0.4375 38.628906 -1.277344 Z M 20.824219 -6.472656 C 15.316406 -6.472656 10.832031 -10.957031 10.832031 -16.464844 C 10.832031 -22.007812 15.316406 -26.488281 20.824219 -26.488281 C 26.367188 -26.488281 30.847656 -22.007812 30.847656 -16.464844 C 30.847656 -10.957031 26.367188 -6.472656 20.824219 -6.472656 Z M 20.824219 -6.472656 "/></g></g></g><g fill="#2d1e2f" fill-opacity="1"><g transform="translate(175.825487, 352.747566)"><g><path d="M 8.25 -36.140625 C 11.050781 -36.140625 13.136719 -38.257812 13.136719 -41.058594 C 13.136719 -43.828125 11.050781 -46.007812 8.25 -46.007812 C 5.449219 -46.007812 3.332031 -43.828125 3.332031 -41.058594 C 3.332031 -38.257812 5.449219 -36.140625 8.25 -36.140625 Z M 11.019531 0 C 11.859375 0 12.296875 -0.4375 12.296875 -1.277344 L 12.296875 -31.6875 C 12.296875 -32.496094 11.859375 -32.964844 11.019531 -32.964844 L 5.539062 -32.964844 C 4.730469 -32.964844 4.265625 -32.496094 4.265625 -31.6875 L 4.265625 -1.277344 C 4.265625 -0.4375 4.730469 0 5.539062 0 Z M 11.019531 0 "/></g></g></g><g fill="#2d1e2f" fill-opacity="1"><g transform="translate(189.833936, 352.747566)"><g><path d="M 16.496094 0.714844 C 18.085938 0.714844 19.734375 0.558594 21.539062 0 C 22.351562 -0.25 22.597656 -0.902344 22.351562 -1.648438 L 21.261719 -5.570312 C 21.011719 -6.351562 20.449219 -6.628906 19.640625 -6.382812 C 18.832031 -6.132812 18.085938 -6.039062 17.460938 -6.039062 C 15.46875 -6.039062 14.195312 -7.160156 14.195312 -9.804688 L 14.195312 -26.425781 L 20.328125 -26.425781 C 21.167969 -26.425781 21.601562 -26.863281 21.601562 -27.703125 L 21.601562 -31.6875 C 21.601562 -32.496094 21.167969 -32.964844 20.328125 -32.964844 L 14.195312 -32.964844 L 14.195312 -42.832031 C 14.195312 -43.671875 13.726562 -44.109375 12.917969 -44.109375 L 7.441406 -44.109375 C 6.597656 -44.109375 6.164062 -43.671875 6.164062 -42.832031 L 6.164062 -32.964844 L 3.425781 -32.964844 C 2.582031 -32.964844 2.148438 -32.496094 2.148438 -31.6875 L 2.148438 -27.703125 C 2.148438 -26.863281 2.582031 -26.425781 3.425781 -26.425781 L 6.164062 -26.425781 L 6.164062 -8.871094 C 6.164062 -2.644531 10.429688 0.714844 16.496094 0.714844 Z M 16.496094 0.714844 "/></g></g></g><g fill="#2d1e2f" fill-opacity="1"><g transform="translate(211.904517, 352.747566)"><g><path d="M 11.019531 0 C 11.859375 0 12.296875 -0.4375 12.296875 -1.277344 L 12.296875 -17.773438 C 12.296875 -23.40625 14.628906 -26.335938 18.769531 -26.335938 C 19.421875 -26.335938 20.296875 -26.242188 21.261719 -26.023438 C 22.070312 -25.835938 22.628906 -26.117188 22.816406 -26.894531 L 24.0625 -31.65625 C 24.25 -32.402344 23.96875 -32.996094 23.222656 -33.214844 C 22.195312 -33.492188 21.167969 -33.648438 20.265625 -33.648438 C 16.933594 -33.648438 13.539062 -32.15625 11.238281 -28.359375 L 10.367188 -31.84375 C 10.179688 -32.621094 9.679688 -32.964844 8.964844 -32.964844 L 5.507812 -32.964844 C 4.699219 -32.964844 4.234375 -32.496094 4.234375 -31.6875 L 4.265625 -1.277344 C 4.265625 -0.4375 4.730469 0 5.539062 0 Z M 11.019531 0 "/></g></g></g><g fill="#2d1e2f" fill-opacity="1"><g transform="translate(234.784425, 352.747566)"><g><path d="M 16.777344 -33.648438 C 13.136719 -33.648438 9.214844 -32.964844 5.507812 -31.75 C 4.730469 -31.46875 4.421875 -30.941406 4.699219 -30.132812 L 6.007812 -26.023438 C 6.257812 -25.214844 6.816406 -24.996094 7.625 -25.277344 C 10.488281 -26.335938 13.476562 -27.019531 16.0625 -27.019531 C 19.921875 -27.019531 22.847656 -25.492188 22.847656 -21.230469 L 22.847656 -19.144531 C 20.480469 -19.734375 18.148438 -20.046875 15.9375 -20.046875 C 8.527344 -20.046875 2.769531 -16.496094 2.769531 -9.402344 C 2.769531 -2.550781 8 0.714844 13.851562 0.714844 C 17.402344 0.714844 21.355469 -0.46875 24 -4.046875 L 24.777344 -1.121094 C 24.933594 -0.34375 25.429688 0 26.179688 0 L 29.601562 0 C 30.441406 0 30.878906 -0.4375 30.878906 -1.277344 L 30.878906 -21.570312 C 30.878906 -30.378906 24.527344 -33.648438 16.777344 -33.648438 Z M 15.78125 -5.136719 C 13.105469 -5.136719 10.800781 -6.503906 10.800781 -9.523438 C 10.800781 -13.011719 13.820312 -14.382812 17.804688 -14.382812 C 19.421875 -14.382812 21.105469 -14.164062 22.847656 -13.757812 L 22.847656 -12.359375 C 22.847656 -6.941406 18.738281 -5.136719 15.78125 -5.136719 Z M 15.78125 -5.136719 "/></g></g></g><g fill="#2d1e2f" fill-opacity="1"><g transform="translate(267.033851, 352.747566)"><g><path d="M 11.019531 0 C 11.859375 0 12.296875 -0.4375 12.296875 -1.277344 L 12.296875 -16.839844 L 24.839844 -0.777344 C 25.246094 -0.25 25.742188 0 26.394531 0 L 33.277344 0 C 34.335938 0 34.707031 -0.714844 34.054688 -1.554688 L 20.792969 -18.148438 L 32.964844 -31.375 C 33.710938 -32.1875 33.398438 -32.964844 32.28125 -32.964844 L 25.058594 -32.964844 C 24.402344 -32.964844 23.9375 -32.746094 23.53125 -32.25 L 12.296875 -19.453125 L 12.296875 -46.535156 C 12.296875 -47.375 11.859375 -47.8125 11.019531 -47.8125 L 5.539062 -47.8125 C 4.730469 -47.8125 4.265625 -47.375 4.265625 -46.535156 L 4.265625 -1.277344 C 4.265625 -0.4375 4.730469 0 5.539062 0 Z M 11.019531 0 "/></g></g></g><g fill="#2d1e2f" fill-opacity="1"><g transform="translate(300.497266, 352.747566)"><g><path d="M 11.019531 0 C 11.859375 0 12.296875 -0.4375 12.296875 -1.277344 L 12.296875 -17.773438 C 12.296875 -23.40625 14.628906 -26.335938 18.769531 -26.335938 C 19.421875 -26.335938 20.296875 -26.242188 21.261719 -26.023438 C 22.070312 -25.835938 22.628906 -26.117188 22.816406 -26.894531 L 24.0625 -31.65625 C 24.25 -32.402344 23.96875 -32.996094 23.222656 -33.214844 C 22.195312 -33.492188 21.167969 -33.648438 20.265625 -33.648438 C 16.933594 -33.648438 13.539062 -32.15625 11.238281 -28.359375 L 10.367188 -31.84375 C 10.179688 -32.621094 9.679688 -32.964844 8.964844 -32.964844 L 5.507812 -32.964844 C 4.699219 -32.964844 4.234375 -32.496094 4.234375 -31.6875 L 4.265625 -1.277344 C 4.265625 -0.4375 4.730469 0 5.539062 0 Z M 11.019531 0 "/></g></g></g></svg>